<?xml version="1.0" encoding="UTF-8"?>
<!-- Created with Inkscape (http://www.inkscape.org/) -->
<svg width="48.882mm" height="21mm" version="1.1" viewBox="0 0 48.882 21" xmlns="http://www.w3.org/2000/svg">
 <g transform="matrix(.1394 0 0 .1394 -202.03 -21.951)">
  <g font-weight="bold" stroke-width="1.3333">
   <text x="1549.7501" y="189.15181" fill="#ffffff" font-family="Arial" font-size="32px"><tspan x="1549.7501 1567.5421 1595.9901 1613.7821 1629.7821 1649.3341 1668.8861 1677.7821" y="189.15181" fill="#ffffff" stroke-width="1.3333">amazônia</tspan></text>
   <text x="1467.299" y="248.19141" fill="#99d420" font-family="'Eras Bold ITC'" font-size="52.764px"><tspan x="1467.299 1501.9648 1524.6533 1541.1157 1590.2917" y="248.19141" stroke-width="1.3333">primo</tspan></text>
   <text x="1631.7749" y="249.52448" fill="#ffffff" font-family="Arial" font-size="57.687px"><tspan x="1631.7749 1663.8486 1679.8856 1715.1321 1747.2059" y="249.52448" fill="#ffffff" stroke-width="1.3333">vídeo</tspan></text>
  </g>
  <g transform="matrix(1.3333 0 0 -1.3333 1468.8 299.72)" fill="#99d420" fill-rule="evenodd">
   <path d="m56.48 26.391c25.392-13.643 39.8-18.001 69.284-17.042 16.161 0.5258 24.689 3.7692 39.841 9.4161l-10.29-8.8305c-28.218-17.425-79.619-11.922-98.836 16.456"/>
   <path d="m153.77 22.39c11.476 7.4344 32.191 11.435 20.433-9.4549-3.4506-6.1311-2.6356-4.9173-6.8082-8.6077 0.6956 2.821 5.4867 15.808 4.7806 18.644-2.6847 0.6004-16.273-0.6562-18.406-0.5811zm18.342 0.7725c-9e-3 0.0209-0.017 0.043-0.0269 0.062l-3e-3 -0.0294 0.03-0.0326zm0.2285-0.2356c0.0655-0.0527 0.144-0.0981 0.2698-0.1508-0.0416 0.0581-0.1349 0.1083-0.2698 0.1508"/>
  </g>
 </g>
</svg>
